<?xml version="1.0" encoding="UTF-8" standalone="no"?>
<!DOCTYPE svg PUBLIC "-//W3C//DTD SVG 1.1//EN"
 "http://www.w3.org/Graphics/SVG/1.1/DTD/svg11.dtd">
<!-- Generated by graphviz version 2.40.1 (20161225.0304)
 -->
<!-- Title: dependencies Pages: 1 -->
<svg width="2501pt" height="284pt"
 viewBox="0.00 0.00 2501.00 284.00" xmlns="http://www.w3.org/2000/svg" xmlns:xlink="http://www.w3.org/1999/xlink">
<g id="graph0" class="graph" transform="scale(1 1) rotate(0) translate(4 280)">
<title>dependencies</title>
<polygon fill="#ffffff" stroke="transparent" points="-4,4 -4,-280 2497,-280 2497,4 -4,4"/>
<text text-anchor="start" x="1225.5091" y="-42.4" font-family="sans-serif" font-weight="bold" font-size="14.00" fill="#000000">Legend</text>
<polygon fill="#ffffb3" stroke="transparent" points="1012.5,-10 1012.5,-30 1032.5,-30 1032.5,-10 1012.5,-10"/>
<text text-anchor="start" x="1036.129" y="-15.4" font-family="sans-serif" font-size="14.00" fill="#000000"> &#160;Declarations</text>
<polygon fill="#8dd3c7" stroke="transparent" points="1125.5,-10 1125.5,-30 1145.5,-30 1145.5,-10 1125.5,-10"/>
<text text-anchor="start" x="1149.2251" y="-15.4" font-family="sans-serif" font-size="14.00" fill="#000000"> &#160;Module</text>
<polygon fill="#80b1d3" stroke="transparent" points="1211.5,-10 1211.5,-30 1231.5,-30 1231.5,-10 1211.5,-10"/>
<text text-anchor="start" x="1235.2812" y="-15.4" font-family="sans-serif" font-size="14.00" fill="#000000"> &#160;Bootstrap</text>
<polygon fill="#fdb462" stroke="transparent" points="1308.5,-10 1308.5,-30 1328.5,-30 1328.5,-10 1308.5,-10"/>
<text text-anchor="start" x="1332.1732" y="-15.4" font-family="sans-serif" font-size="14.00" fill="#000000"> &#160;Providers</text>
<polygon fill="#fb8072" stroke="transparent" points="1404.5,-10 1404.5,-30 1424.5,-30 1424.5,-10 1404.5,-10"/>
<text text-anchor="start" x="1428.2258" y="-15.4" font-family="sans-serif" font-size="14.00" fill="#000000"> &#160;Exports</text>
<g id="clust1" class="cluster">
<title>cluster_AppModule</title>
<polygon fill="none" stroke="#000000" stroke-dasharray="1,5" points="8,-70 8,-268 2485,-268 2485,-70 8,-70"/>
</g>
<g id="clust2" class="cluster">
<title>cluster_AppModule_declarations</title>
<polygon fill="none" stroke="#000000" points="1269,-78 1269,-130 2477,-130 2477,-78 1269,-78"/>
</g>
<g id="clust11" class="cluster">
<title>cluster_AppModule_imports</title>
<polygon fill="none" stroke="#000000" points="992,-78 992,-130 1261,-130 1261,-78 992,-78"/>
</g>
<g id="clust13" class="cluster">
<title>cluster_AppModule_bootstrap</title>
<polygon fill="none" stroke="#000000" points="1203,-208 1203,-260 1327,-260 1327,-208 1203,-208"/>
</g>
<g id="clust14" class="cluster">
<title>cluster_AppModule_providers</title>
<polygon fill="none" stroke="#000000" points="16,-78 16,-130 984,-130 984,-78 16,-78"/>
</g>
<!-- AppComponent -->
<g id="node1" class="node">
<title>AppComponent</title>
<polygon fill="#ffffb3" stroke="#000000" points="2468.9399,-122 2363.0601,-122 2363.0601,-86 2468.9399,-86 2468.9399,-122"/>
<text text-anchor="middle" x="2416" y="-99.8" font-family="Times,serif" font-size="14.00" fill="#000000">AppComponent</text>
</g>
<!-- AppModule -->
<g id="node9" class="node">
<title>AppModule</title>
<polygon fill="#8dd3c7" stroke="#000000" points="1306.6571,-187 1303.6571,-191 1282.6571,-191 1279.6571,-187 1223.3429,-187 1223.3429,-151 1306.6571,-151 1306.6571,-187"/>
<text text-anchor="middle" x="1265" y="-164.8" font-family="Times,serif" font-size="14.00" fill="#000000">AppModule</text>
</g>
<!-- AppComponent&#45;&gt;AppModule -->
<g id="edge1" class="edge">
<title>AppComponent&#45;&gt;AppModule</title>
<path fill="none" stroke="#000000" d="M2416,-122.3228C2416,-145.6602 2416,-183 2416,-183 2416,-183 1316.9866,-183 1316.9866,-183"/>
<polygon fill="#000000" stroke="#000000" points="1316.9866,-179.5001 1306.9866,-183 1316.9865,-186.5001 1316.9866,-179.5001"/>
</g>
<!-- ClassTableComponent -->
<g id="node2" class="node">
<title>ClassTableComponent</title>
<polygon fill="#ffffb3" stroke="#000000" points="2345.5365,-122 2202.4635,-122 2202.4635,-86 2345.5365,-86 2345.5365,-122"/>
<text text-anchor="middle" x="2274" y="-99.8" font-family="Times,serif" font-size="14.00" fill="#000000">ClassTableComponent</text>
</g>
<!-- ClassTableComponent&#45;&gt;AppModule -->
<g id="edge2" class="edge">
<title>ClassTableComponent&#45;&gt;AppModule</title>
<path fill="none" stroke="#000000" d="M2274,-122.2921C2274,-144.2057 2274,-178 2274,-178 2274,-178 1316.7524,-178 1316.7524,-178"/>
<polygon fill="#000000" stroke="#000000" points="1316.7525,-174.5001 1306.7524,-178 1316.7524,-181.5001 1316.7525,-174.5001"/>
</g>
<!-- LabelingComponent -->
<g id="node3" class="node">
<title>LabelingComponent</title>
<polygon fill="#ffffb3" stroke="#000000" points="2184.5954,-122 2053.4046,-122 2053.4046,-86 2184.5954,-86 2184.5954,-122"/>
<text text-anchor="middle" x="2119" y="-99.8" font-family="Times,serif" font-size="14.00" fill="#000000">LabelingComponent</text>
</g>
<!-- LabelingComponent&#45;&gt;AppModule -->
<g id="edge3" class="edge">
<title>LabelingComponent&#45;&gt;AppModule</title>
<path fill="none" stroke="#000000" d="M2119,-122.0267C2119,-142.7672 2119,-174 2119,-174 2119,-174 1316.7683,-174 1316.7683,-174"/>
<polygon fill="#000000" stroke="#000000" points="1316.7683,-170.5001 1306.7683,-174 1316.7683,-177.5001 1316.7683,-170.5001"/>
</g>
<!-- LandingpageComponent -->
<g id="node4" class="node">
<title>LandingpageComponent</title>
<polygon fill="#ffffb3" stroke="#000000" points="2035.42,-122 1880.58,-122 1880.58,-86 2035.42,-86 2035.42,-122"/>
<text text-anchor="middle" x="1958" y="-99.8" font-family="Times,serif" font-size="14.00" fill="#000000">LandingpageComponent</text>
</g>
<!-- LandingpageComponent&#45;&gt;AppModule -->
<g id="edge4" class="edge">
<title>LandingpageComponent&#45;&gt;AppModule</title>
<path fill="none" stroke="#000000" d="M1958,-122.1061C1958,-141.3391 1958,-169 1958,-169 1958,-169 1316.7896,-169 1316.7896,-169"/>
<polygon fill="#000000" stroke="#000000" points="1316.7897,-165.5001 1306.7896,-169 1316.7896,-172.5001 1316.7897,-165.5001"/>
</g>
<!-- RoisTableComponent -->
<g id="node5" class="node">
<title>RoisTableComponent</title>
<polygon fill="#ffffb3" stroke="#000000" points="1862.3767,-122 1723.6233,-122 1723.6233,-86 1862.3767,-86 1862.3767,-122"/>
<text text-anchor="middle" x="1793" y="-99.8" font-family="Times,serif" font-size="14.00" fill="#000000">RoisTableComponent</text>
</g>
<!-- RoisTableComponent&#45;&gt;AppModule -->
<g id="edge5" class="edge">
<title>RoisTableComponent&#45;&gt;AppModule</title>
<path fill="none" stroke="#000000" d="M1793,-122.302C1793,-140.2699 1793,-165 1793,-165 1793,-165 1316.8726,-165 1316.8726,-165"/>
<polygon fill="#000000" stroke="#000000" points="1316.8726,-161.5001 1306.8726,-165 1316.8726,-168.5001 1316.8726,-161.5001"/>
</g>
<!-- SubimageComponent -->
<g id="node6" class="node">
<title>SubimageComponent</title>
<polygon fill="#ffffb3" stroke="#000000" points="1705.8258,-122 1568.1742,-122 1568.1742,-86 1705.8258,-86 1705.8258,-122"/>
<text text-anchor="middle" x="1637" y="-99.8" font-family="Times,serif" font-size="14.00" fill="#000000">SubimageComponent</text>
</g>
<!-- SubimageComponent&#45;&gt;AppModule -->
<g id="edge6" class="edge">
<title>SubimageComponent&#45;&gt;AppModule</title>
<path fill="none" stroke="#000000" d="M1637,-122.027C1637,-138.3976 1637,-160 1637,-160 1637,-160 1316.95,-160 1316.95,-160"/>
<polygon fill="#000000" stroke="#000000" points="1316.95,-156.5001 1306.95,-160 1316.95,-163.5001 1316.95,-156.5001"/>
</g>
<!-- ToolbarComponent -->
<g id="node7" class="node">
<title>ToolbarComponent</title>
<polygon fill="#ffffb3" stroke="#000000" points="1550.6513,-122 1425.3487,-122 1425.3487,-86 1550.6513,-86 1550.6513,-122"/>
<text text-anchor="middle" x="1488" y="-99.8" font-family="Times,serif" font-size="14.00" fill="#000000">ToolbarComponent</text>
</g>
<!-- ToolbarComponent&#45;&gt;AppModule -->
<g id="edge7" class="edge">
<title>ToolbarComponent&#45;&gt;AppModule</title>
<path fill="none" stroke="#000000" d="M1488,-122.1871C1488,-137.1824 1488,-156 1488,-156 1488,-156 1316.683,-156 1316.683,-156"/>
<polygon fill="#000000" stroke="#000000" points="1316.683,-152.5001 1306.683,-156 1316.683,-159.5001 1316.683,-152.5001"/>
</g>
<!-- WrapperComponent -->
<g id="node8" class="node">
<title>WrapperComponent</title>
<polygon fill="#ffffb3" stroke="#000000" points="1407.2977,-122 1276.7023,-122 1276.7023,-86 1407.2977,-86 1407.2977,-122"/>
<text text-anchor="middle" x="1342" y="-99.8" font-family="Times,serif" font-size="14.00" fill="#000000">WrapperComponent</text>
</g>
<!-- WrapperComponent&#45;&gt;AppModule -->
<g id="edge8" class="edge">
<title>WrapperComponent&#45;&gt;AppModule</title>
<path fill="none" stroke="#000000" d="M1291.8398,-122.1061C1291.8398,-122.1061 1291.8398,-140.991 1291.8398,-140.991"/>
<polygon fill="#000000" stroke="#000000" points="1288.3398,-140.9909 1291.8398,-150.991 1295.3398,-140.991 1288.3398,-140.9909"/>
</g>
<!-- AppComponent  -->
<g id="node12" class="node">
<title>AppComponent </title>
<polygon fill="#80b1d3" stroke="#000000" points="1319.439,-252 1210.561,-252 1210.561,-216 1319.439,-216 1319.439,-252"/>
<text text-anchor="middle" x="1265" y="-229.8" font-family="Times,serif" font-size="14.00" fill="#000000">AppComponent </text>
</g>
<!-- AppModule&#45;&gt;AppComponent  -->
<g id="edge11" class="edge">
<title>AppModule&#45;&gt;AppComponent </title>
<path fill="none" stroke="#000000" stroke-dasharray="1,5" d="M1265,-187.1061C1265,-187.1061 1265,-205.991 1265,-205.991"/>
<polygon fill="#000000" stroke="#000000" points="1261.5001,-205.9909 1265,-215.991 1268.5001,-205.991 1261.5001,-205.9909"/>
</g>
<!-- AppRoutingModule -->
<g id="node10" class="node">
<title>AppRoutingModule</title>
<polygon fill="#8dd3c7" stroke="#000000" points="1253.2744,-122 1250.2744,-126 1229.2744,-126 1226.2744,-122 1124.7256,-122 1124.7256,-86 1253.2744,-86 1253.2744,-122"/>
<text text-anchor="middle" x="1189" y="-99.8" font-family="Times,serif" font-size="14.00" fill="#000000">AppRoutingModule</text>
</g>
<!-- AppRoutingModule&#45;&gt;AppModule -->
<g id="edge9" class="edge">
<title>AppRoutingModule&#45;&gt;AppModule</title>
<path fill="none" stroke="#000000" d="M1238.2795,-122.1061C1238.2795,-122.1061 1238.2795,-140.991 1238.2795,-140.991"/>
<polygon fill="#000000" stroke="#000000" points="1234.7795,-140.9909 1238.2795,-150.991 1241.7795,-140.991 1234.7795,-140.9909"/>
</g>
<!-- MaterialModule -->
<g id="node11" class="node">
<title>MaterialModule</title>
<polygon fill="#8dd3c7" stroke="#000000" points="1106.4706,-122 1103.4706,-126 1082.4706,-126 1079.4706,-122 999.5294,-122 999.5294,-86 1106.4706,-86 1106.4706,-122"/>
<text text-anchor="middle" x="1053" y="-99.8" font-family="Times,serif" font-size="14.00" fill="#000000">MaterialModule</text>
</g>
<!-- MaterialModule&#45;&gt;AppModule -->
<g id="edge10" class="edge">
<title>MaterialModule&#45;&gt;AppModule</title>
<path fill="none" stroke="#000000" d="M1053,-122.1871C1053,-137.1824 1053,-156 1053,-156 1053,-156 1213.1156,-156 1213.1156,-156"/>
<polygon fill="#000000" stroke="#000000" points="1213.1157,-159.5001 1223.1156,-156 1213.1156,-152.5001 1213.1157,-159.5001"/>
</g>
<!-- AnnotationService -->
<g id="node13" class="node">
<title>AnnotationService</title>
<ellipse fill="#fdb462" stroke="#000000" cx="893" cy="-104" rx="83.3867" ry="18"/>
<text text-anchor="middle" x="893" y="-99.8" font-family="Times,serif" font-size="14.00" fill="#000000">AnnotationService</text>
</g>
<!-- AnnotationService&#45;&gt;AppModule -->
<g id="edge12" class="edge">
<title>AnnotationService&#45;&gt;AppModule</title>
<path fill="none" stroke="#000000" d="M893,-122.027C893,-138.3976 893,-160 893,-160 893,-160 1213.05,-160 1213.05,-160"/>
<polygon fill="#000000" stroke="#000000" points="1213.05,-163.5001 1223.05,-160 1213.05,-156.5001 1213.05,-163.5001"/>
</g>
<!-- ConfigService -->
<g id="node14" class="node">
<title>ConfigService</title>
<ellipse fill="#fdb462" stroke="#000000" cx="725" cy="-104" rx="66.6325" ry="18"/>
<text text-anchor="middle" x="725" y="-99.8" font-family="Times,serif" font-size="14.00" fill="#000000">ConfigService</text>
</g>
<!-- ConfigService&#45;&gt;AppModule -->
<g id="edge13" class="edge">
<title>ConfigService&#45;&gt;AppModule</title>
<path fill="none" stroke="#000000" d="M725,-122.302C725,-140.2699 725,-165 725,-165 725,-165 1213.0764,-165 1213.0764,-165"/>
<polygon fill="#000000" stroke="#000000" points="1213.0765,-168.5001 1223.0764,-165 1213.0764,-161.5001 1213.0765,-168.5001"/>
</g>
<!-- DataService -->
<g id="node15" class="node">
<title>DataService</title>
<ellipse fill="#fdb462" stroke="#000000" cx="582" cy="-104" rx="58.4415" ry="18"/>
<text text-anchor="middle" x="582" y="-99.8" font-family="Times,serif" font-size="14.00" fill="#000000">DataService</text>
</g>
<!-- DataService&#45;&gt;AppModule -->
<g id="edge14" class="edge">
<title>DataService&#45;&gt;AppModule</title>
<path fill="none" stroke="#000000" d="M582,-122.1061C582,-141.3391 582,-169 582,-169 582,-169 1213.3034,-169 1213.3034,-169"/>
<polygon fill="#000000" stroke="#000000" points="1213.3035,-172.5001 1223.3034,-169 1213.3034,-165.5001 1213.3035,-172.5001"/>
</g>
<!-- LabelingGuard -->
<g id="node16" class="node">
<title>LabelingGuard</title>
<ellipse fill="#fdb462" stroke="#000000" cx="436" cy="-104" rx="69.4839" ry="18"/>
<text text-anchor="middle" x="436" y="-99.8" font-family="Times,serif" font-size="14.00" fill="#000000">LabelingGuard</text>
</g>
<!-- LabelingGuard&#45;&gt;AppModule -->
<g id="edge15" class="edge">
<title>LabelingGuard&#45;&gt;AppModule</title>
<path fill="none" stroke="#000000" d="M436,-122.0267C436,-142.7672 436,-174 436,-174 436,-174 1213.3216,-174 1213.3216,-174"/>
<polygon fill="#000000" stroke="#000000" points="1213.3217,-177.5001 1223.3216,-174 1213.3216,-170.5001 1213.3217,-177.5001"/>
</g>
<!-- LabelingService -->
<g id="node17" class="node">
<title>LabelingService</title>
<ellipse fill="#fdb462" stroke="#000000" cx="274" cy="-104" rx="74.1354" ry="18"/>
<text text-anchor="middle" x="274" y="-99.8" font-family="Times,serif" font-size="14.00" fill="#000000">LabelingService</text>
</g>
<!-- LabelingService&#45;&gt;AppModule -->
<g id="edge16" class="edge">
<title>LabelingService&#45;&gt;AppModule</title>
<path fill="none" stroke="#000000" d="M274,-122.2921C274,-144.2057 274,-178 274,-178 274,-178 1213.0509,-178 1213.0509,-178"/>
<polygon fill="#000000" stroke="#000000" points="1213.051,-181.5001 1223.0509,-178 1213.0509,-174.5001 1213.051,-181.5001"/>
</g>
<!-- SubimageService -->
<g id="node18" class="node">
<title>SubimageService</title>
<ellipse fill="#fdb462" stroke="#000000" cx="103" cy="-104" rx="78.7298" ry="18"/>
<text text-anchor="middle" x="103" y="-99.8" font-family="Times,serif" font-size="14.00" fill="#000000">SubimageService</text>
</g>
<!-- SubimageService&#45;&gt;AppModule -->
<g id="edge17" class="edge">
<title>SubimageService&#45;&gt;AppModule</title>
<path fill="none" stroke="#000000" d="M103,-122.3228C103,-145.6602 103,-183 103,-183 103,-183 1213.3012,-183 1213.3012,-183"/>
<polygon fill="#000000" stroke="#000000" points="1213.3012,-186.5001 1223.3012,-183 1213.3012,-179.5001 1213.3012,-186.5001"/>
</g>
</g>
</svg>
